<?xml version="1.0" standalone="no"?>
<!DOCTYPE svg PUBLIC "-//W3C//DTD SVG 20010904//EN"
 "http://www.w3.org/TR/2001/REC-SVG-20010904/DTD/svg10.dtd">
<svg version="1.0" xmlns="http://www.w3.org/2000/svg"
 width="846.000000pt" height="1280.000000pt" viewBox="0 0 846.000000 1280.000000"
 preserveAspectRatio="xMidYMid meet">
<metadata>
Created by potrace 1.15, written by Peter Selinger 2001-2017
</metadata>
<g transform="translate(0.000000,1280.000000) scale(0.100000,-0.100000)"
fill="#000000" stroke="none">
<path d="M3885 12794 c-234 -12 -454 -27 -625 -45 -1251 -125 -2233 -465
-2653 -918 -134 -146 -194 -247 -222 -381 -18 -83 -34 -442 -35 -777 l0 -201
-46 -54 c-102 -119 -201 -296 -248 -446 -51 -164 -51 -132 -50 -4132 0 -2449
4 -3757 11 -3880 13 -217 32 -290 120 -461 175 -340 527 -644 1028 -889 669
-326 1430 -508 2510 -601 210 -18 1095 1 1435 31 490 43 1106 170 1575 325
259 85 397 141 620 251 321 157 535 304 735 504 184 183 288 345 361 560 28
85 33 114 42 280 7 119 11 1495 11 3880 1 3837 0 3965 -40 4100 -42 144 -139
331 -233 449 l-51 64 0 316 c0 528 -19 711 -88 847 -66 129 -258 316 -467 456
-126 84 -395 221 -555 284 -572 222 -1266 362 -2115 424 -140 11 -888 21
-1020 14z m860 -344 c672 -33 1231 -116 1735 -260 642 -184 1135 -470 1266
-734 37 -76 39 -84 39 -176 0 -91 -2 -100 -37 -171 -212 -424 -1024 -772
-2203 -943 -274 -39 -409 -52 -720 -66 -290 -13 -1145 -13 -1316 0 -857 67
-1670 260 -2199 524 -306 153 -489 305 -573 476 -30 60 -32 72 -32 170 0 102
1 109 37 181 84 169 273 322 599 485 592 295 1441 475 2449 517 179 8 770 6
955 -3z m3049 -1877 c-14 -141 -70 -239 -210 -373 -316 -300 -965 -547 -1825
-694 -405 -70 -607 -89 -1144 -106 -796 -26 -1241 -3 -1840 96 -838 137 -1562
409 -1878 704 -74 69 -154 175 -178 236 -13 34 -28 194 -17 194 4 0 9 -4 13
-10 12 -19 194 -149 290 -207 384 -231 908 -403 1635 -537 489 -90 776 -110
1595 -110 764 0 1023 14 1425 79 964 156 1683 414 2075 744 33 28 61 51 63 51
1 0 -1 -30 -4 -67z m-7183 -546 c114 -113 228 -207 330 -273 447 -287 1249
-527 2119 -634 360 -44 486 -51 1015 -57 561 -6 843 3 1166 37 1297 137 2333
515 2697 984 12 16 24 27 26 25 13 -15 79 -125 105 -176 l31 -62 0 -4037 0
-4036 -55 -106 c-122 -239 -299 -419 -594 -606 -561 -355 -1364 -597 -2351
-708 -158 -17 -266 -21 -747 -25 -569 -5 -794 2 -1071 32 -1140 127 -2146 502
-2628 980 -107 106 -177 203 -245 337 l-49 98 0 4035 0 4036 21 42 c16 33 122
216 125 217 0 0 47 -46 105 -103z"/>
</g>
</svg>
